<svg width="25" height="24" viewBox="0 0 25 24" fill="none" xmlns="http://www.w3.org/2000/svg">
<path d="M3.5 2.25C3.5 1.65326 3.73705 1.08097 4.15901 0.65901C4.58097 0.237053 5.15326 0 5.75 0L16.379 0C16.9755 0.000525156 17.5474 0.237923 17.969 0.66L20.8415 3.531C21.263 3.9528 21.4999 4.52468 21.5 5.121V21.75C21.5 22.3467 21.2629 22.919 20.841 23.341C20.419 23.7629 19.8467 24 19.25 24H5.75C5.15326 24 4.58097 23.7629 4.15901 23.341C3.73705 22.919 3.5 22.3467 3.5 21.75V2.25ZM5.75 1.5C5.55109 1.5 5.36032 1.57902 5.21967 1.71967C5.07902 1.86032 5 2.05109 5 2.25V21.75C5 21.9489 5.07902 22.1397 5.21967 22.2803C5.36032 22.421 5.55109 22.5 5.75 22.5H19.25C19.4489 22.5 19.6397 22.421 19.7803 22.2803C19.921 22.1397 20 21.9489 20 21.75V5.121C20 4.92247 19.9212 4.73206 19.781 4.5915L16.9085 1.719C16.7679 1.5788 16.5775 1.50004 16.379 1.5H5.75Z" fill="#7A8191"/>
<path d="M8.75 6C8.55109 6 8.36032 6.07902 8.21967 6.21967C8.07902 6.36032 8 6.55109 8 6.75V9H11.75V6H8.75ZM13.25 6V9H17V6.75C17 6.55109 16.921 6.36032 16.7803 6.21967C16.6397 6.07902 16.4489 6 16.25 6H13.25ZM17 10.5H8V13.5H17V10.5ZM17 15H13.25V18H16.25C16.4489 18 16.6397 17.921 16.7803 17.7803C16.921 17.6397 17 17.4489 17 17.25V15ZM11.75 18V15H8V17.25C8 17.4489 8.07902 17.6397 8.21967 17.7803C8.36032 17.921 8.55109 18 8.75 18H11.75ZM6.5 6.75C6.5 6.15326 6.73705 5.58097 7.15901 5.15901C7.58097 4.73705 8.15326 4.5 8.75 4.5H16.25C16.8467 4.5 17.419 4.73705 17.841 5.15901C18.2629 5.58097 18.5 6.15326 18.5 6.75V17.25C18.5 17.8467 18.2629 18.419 17.841 18.841C17.419 19.2629 16.8467 19.5 16.25 19.5H8.75C8.15326 19.5 7.58097 19.2629 7.15901 18.841C6.73705 18.419 6.5 17.8467 6.5 17.25V6.75Z" fill="#7A8191"/>
</svg>
